<mxfile host="app.diagrams.net" modified="2023-11-06T15:45:45.712Z" agent="Mozilla/5.0 (Windows NT 10.0; Win64; x64) AppleWebKit/537.36 (KHTML, like Gecko) Chrome/119.0.0.0 Safari/537.36" etag="bVUcRtg-6CjPvJU13xUk" version="22.0.8" type="device">
  <diagram id="C5RBs43oDa-KdzZeNtuy" name="Page-1">
    <mxGraphModel dx="880" dy="484" grid="1" gridSize="10" guides="1" tooltips="1" connect="1" arrows="1" fold="1" page="1" pageScale="1" pageWidth="827" pageHeight="1169" math="0" shadow="0">
      <root>
        <mxCell id="WIyWlLk6GJQsqaUBKTNV-0" />
        <mxCell id="WIyWlLk6GJQsqaUBKTNV-1" parent="WIyWlLk6GJQsqaUBKTNV-0" />
        <mxCell id="mWBbg9wqbqrPf4f2dgjA-3" style="edgeStyle=orthogonalEdgeStyle;rounded=0;orthogonalLoop=1;jettySize=auto;html=1;entryX=0.5;entryY=0;entryDx=0;entryDy=0;" edge="1" parent="WIyWlLk6GJQsqaUBKTNV-1" source="mWBbg9wqbqrPf4f2dgjA-1" target="mWBbg9wqbqrPf4f2dgjA-2">
          <mxGeometry relative="1" as="geometry" />
        </mxCell>
        <mxCell id="mWBbg9wqbqrPf4f2dgjA-1" value="start now" style="ellipse;whiteSpace=wrap;html=1;" vertex="1" parent="WIyWlLk6GJQsqaUBKTNV-1">
          <mxGeometry x="230" y="140" width="120" height="80" as="geometry" />
        </mxCell>
        <mxCell id="mWBbg9wqbqrPf4f2dgjA-6" value="" style="edgeStyle=orthogonalEdgeStyle;rounded=0;orthogonalLoop=1;jettySize=auto;html=1;" edge="1" parent="WIyWlLk6GJQsqaUBKTNV-1" source="mWBbg9wqbqrPf4f2dgjA-2">
          <mxGeometry relative="1" as="geometry">
            <mxPoint x="290" y="390" as="targetPoint" />
          </mxGeometry>
        </mxCell>
        <mxCell id="mWBbg9wqbqrPf4f2dgjA-2" value="a,b" style="shape=parallelogram;perimeter=parallelogramPerimeter;whiteSpace=wrap;html=1;fixedSize=1;" vertex="1" parent="WIyWlLk6GJQsqaUBKTNV-1">
          <mxGeometry x="230" y="270" width="120" height="60" as="geometry" />
        </mxCell>
        <mxCell id="mWBbg9wqbqrPf4f2dgjA-8" value="true" style="edgeStyle=orthogonalEdgeStyle;rounded=0;orthogonalLoop=1;jettySize=auto;html=1;" edge="1" parent="WIyWlLk6GJQsqaUBKTNV-1" source="mWBbg9wqbqrPf4f2dgjA-7">
          <mxGeometry relative="1" as="geometry">
            <mxPoint x="430" y="430" as="targetPoint" />
          </mxGeometry>
        </mxCell>
        <mxCell id="mWBbg9wqbqrPf4f2dgjA-15" value="false" style="edgeStyle=orthogonalEdgeStyle;rounded=0;orthogonalLoop=1;jettySize=auto;html=1;exitX=0;exitY=0.5;exitDx=0;exitDy=0;" edge="1" parent="WIyWlLk6GJQsqaUBKTNV-1" source="mWBbg9wqbqrPf4f2dgjA-7">
          <mxGeometry relative="1" as="geometry">
            <mxPoint x="170" y="430" as="targetPoint" />
          </mxGeometry>
        </mxCell>
        <mxCell id="mWBbg9wqbqrPf4f2dgjA-7" value="a=0" style="rhombus;whiteSpace=wrap;html=1;" vertex="1" parent="WIyWlLk6GJQsqaUBKTNV-1">
          <mxGeometry x="250" y="390" width="80" height="80" as="geometry" />
        </mxCell>
        <mxCell id="mWBbg9wqbqrPf4f2dgjA-11" value="true" style="edgeStyle=orthogonalEdgeStyle;rounded=0;orthogonalLoop=1;jettySize=auto;html=1;exitX=1;exitY=0.5;exitDx=0;exitDy=0;" edge="1" parent="WIyWlLk6GJQsqaUBKTNV-1" source="mWBbg9wqbqrPf4f2dgjA-9">
          <mxGeometry relative="1" as="geometry">
            <mxPoint x="560" y="430" as="targetPoint" />
          </mxGeometry>
        </mxCell>
        <mxCell id="mWBbg9wqbqrPf4f2dgjA-13" value="false" style="edgeStyle=orthogonalEdgeStyle;rounded=0;orthogonalLoop=1;jettySize=auto;html=1;" edge="1" parent="WIyWlLk6GJQsqaUBKTNV-1" source="mWBbg9wqbqrPf4f2dgjA-9">
          <mxGeometry relative="1" as="geometry">
            <mxPoint x="470" y="520" as="targetPoint" />
          </mxGeometry>
        </mxCell>
        <mxCell id="mWBbg9wqbqrPf4f2dgjA-9" value="b=0" style="rhombus;whiteSpace=wrap;html=1;" vertex="1" parent="WIyWlLk6GJQsqaUBKTNV-1">
          <mxGeometry x="430" y="390" width="80" height="80" as="geometry" />
        </mxCell>
        <mxCell id="mWBbg9wqbqrPf4f2dgjA-17" style="edgeStyle=orthogonalEdgeStyle;rounded=0;orthogonalLoop=1;jettySize=auto;html=1;" edge="1" parent="WIyWlLk6GJQsqaUBKTNV-1" source="mWBbg9wqbqrPf4f2dgjA-16">
          <mxGeometry relative="1" as="geometry">
            <mxPoint x="110" y="520" as="targetPoint" />
          </mxGeometry>
        </mxCell>
        <mxCell id="mWBbg9wqbqrPf4f2dgjA-16" value="x=-b/a" style="rounded=1;whiteSpace=wrap;html=1;" vertex="1" parent="WIyWlLk6GJQsqaUBKTNV-1">
          <mxGeometry x="50" y="400" width="120" height="50" as="geometry" />
        </mxCell>
        <mxCell id="mWBbg9wqbqrPf4f2dgjA-22" style="edgeStyle=orthogonalEdgeStyle;rounded=0;orthogonalLoop=1;jettySize=auto;html=1;" edge="1" parent="WIyWlLk6GJQsqaUBKTNV-1" source="mWBbg9wqbqrPf4f2dgjA-18" target="mWBbg9wqbqrPf4f2dgjA-21">
          <mxGeometry relative="1" as="geometry" />
        </mxCell>
        <mxCell id="mWBbg9wqbqrPf4f2dgjA-18" value="x" style="shape=parallelogram;perimeter=parallelogramPerimeter;whiteSpace=wrap;html=1;fixedSize=1;" vertex="1" parent="WIyWlLk6GJQsqaUBKTNV-1">
          <mxGeometry x="60" y="525" width="120" height="60" as="geometry" />
        </mxCell>
        <mxCell id="mWBbg9wqbqrPf4f2dgjA-25" style="edgeStyle=orthogonalEdgeStyle;rounded=0;orthogonalLoop=1;jettySize=auto;html=1;entryX=0.975;entryY=0.713;entryDx=0;entryDy=0;entryPerimeter=0;" edge="1" parent="WIyWlLk6GJQsqaUBKTNV-1" source="mWBbg9wqbqrPf4f2dgjA-19" target="mWBbg9wqbqrPf4f2dgjA-21">
          <mxGeometry relative="1" as="geometry">
            <mxPoint x="650" y="720" as="targetPoint" />
            <Array as="points">
              <mxPoint x="615" y="588" />
              <mxPoint x="611" y="588" />
              <mxPoint x="611" y="717" />
            </Array>
          </mxGeometry>
        </mxCell>
        <mxCell id="mWBbg9wqbqrPf4f2dgjA-19" value="phương trình vô số&lt;br&gt;nghiệm" style="shape=parallelogram;perimeter=parallelogramPerimeter;whiteSpace=wrap;html=1;fixedSize=1;" vertex="1" parent="WIyWlLk6GJQsqaUBKTNV-1">
          <mxGeometry x="550" y="395" width="130" height="60" as="geometry" />
        </mxCell>
        <mxCell id="mWBbg9wqbqrPf4f2dgjA-20" value="phương trình vô nghiệm" style="shape=parallelogram;perimeter=parallelogramPerimeter;whiteSpace=wrap;html=1;fixedSize=1;" vertex="1" parent="WIyWlLk6GJQsqaUBKTNV-1">
          <mxGeometry x="420" y="525" width="110" height="60" as="geometry" />
        </mxCell>
        <mxCell id="mWBbg9wqbqrPf4f2dgjA-21" value="end" style="ellipse;whiteSpace=wrap;html=1;" vertex="1" parent="WIyWlLk6GJQsqaUBKTNV-1">
          <mxGeometry x="240" y="660" width="120" height="80" as="geometry" />
        </mxCell>
        <mxCell id="mWBbg9wqbqrPf4f2dgjA-23" style="edgeStyle=orthogonalEdgeStyle;rounded=0;orthogonalLoop=1;jettySize=auto;html=1;entryX=0.992;entryY=0.288;entryDx=0;entryDy=0;entryPerimeter=0;" edge="1" parent="WIyWlLk6GJQsqaUBKTNV-1" source="mWBbg9wqbqrPf4f2dgjA-20" target="mWBbg9wqbqrPf4f2dgjA-21">
          <mxGeometry relative="1" as="geometry" />
        </mxCell>
      </root>
    </mxGraphModel>
  </diagram>
</mxfile>
